Coordinates
version=1
nRows=26
nColumns=24
inDegrees=yes

Units are S.I. units (second, meters, Newtons, ...)
Angles are in degrees.

endheader
time	pelvis_tilt	pelvis_list	pelvis_rotation	pelvis_tx	pelvis_ty	pelvis_tz	hip_flexion_r	hip_adduction_r	hip_rotation_r	knee_angle_r	ankle_angle_r	subtalar_angle_r	mtp_angle_r	hip_flexion_l	hip_adduction_l	hip_rotation_l	knee_angle_l	ankle_angle_l	subtalar_angle_l	mtp_angle_l	lumbar_extension	lumbar_bending	lumbar_rotation
      0.49500000	      0.50768724	      5.13892389	      2.23849956	     -0.71028440	      0.97941311	      0.28587620	     27.31304329	     -3.72072504	     -0.94916790	    -15.24466957	      8.89027160	     -6.10524371	      0.50511467	    -15.25414809	      8.82651427	      4.65859329	     -7.40598542	     11.87761976	     -6.30434992	     -0.01390225	     -1.95980241	     -2.75536845	     -0.63813228
      0.49916667	      0.43213630	      5.13912869	      2.29813221	     -0.70434530	      0.97876537	      0.28616773	     27.26904530	     -3.69193073	     -0.99501563	    -15.24057827	      8.73001468	     -6.24145779	      3.18316104	    -15.14220024	      8.77889576	      4.50694810	     -8.18430158	     12.05856225	     -5.90505272	     -1.54447921	     -1.82765951	     -2.75396534	     -0.62877468
      0.50333333	      0.40829519	      5.13672759	      2.36563144	     -0.69835704	      0.97822795	      0.28640227	     27.17185992	     -3.67672600	     -1.12734171	    -15.31672351	      8.54771088	     -6.13445112	      3.20338263	    -15.10581212	      8.73551740	      4.49929018	     -8.92691708	     12.13167588	     -5.78435174	     -1.52420271	     -1.75455504	     -2.73844936	     -0.73219869
      0.50750000	      0.32779431	      5.13758684	      2.42294594	     -0.69234777	      0.97763923	      0.28672308	     27.12723061	     -3.64478284	     -1.16601334	    -15.43835780	      8.40711828	     -6.07762059	      3.25851205	    -14.93938515	      8.68475539	      4.32167065	     -9.79698560	     12.21658956	     -5.38431674	     -1.45525354	     -1.60804811	     -2.75706783	     -0.85031271
      0.51166667	      0.28748040	      5.12191605	      2.45938090	     -0.68630462	      0.97712058	      0.28705338	     27.04663614	     -3.58891140	     -1.20539573	    -15.63193932	      8.20585995	     -6.12158784	      3.34018181	    -14.79744963	      8.62152236	      4.13732978	    -10.69617240	     12.26713948	     -5.05170924	     -1.33021523	     -1.51221731	     -2.72648879	     -0.90123474
      0.51583333	      0.20946831	      5.09460947	      2.50764577	     -0.68023518	      0.97659561	      0.28738096	     26.99072925	     -3.52167534	     -1.22417069	    -15.84686393	      7.95793237	     -6.21272068	      3.43869056	    -14.58547613	      8.54687452	      3.98442813	    -11.65766482	     12.28913937	     -4.75343700	     -1.15551266	     -1.36320897	     -2.69303858	     -0.93955662
      0.52000000	      0.17010926	      5.06059411	      2.57145036	     -0.67413794	      0.97619534	      0.28769107	     26.86445155	     -3.45425395	     -1.25341496	    -16.04991715	      7.62004083	     -6.27185351	      3.50986146	    -14.39991841	      8.46260140	      3.89630234	    -12.64235340	     12.24522453	     -4.52988285	     -1.00650223	     -1.25177340	     -2.65282197	     -0.95589092
      0.52416667	      0.10677569	      5.01145387	      2.59013381	     -0.66802014	      0.97574018	      0.28808346	     26.79898728	     -3.34851779	     -1.23706252	    -16.36033023	      7.35053925	     -6.44804957	      3.63452109	    -14.13556653	      8.36146523	      3.64457746	    -13.71872388	     12.20752637	     -4.16058971	     -0.72142193	     -1.11588235	     -2.58952252	     -0.98951238
      0.52833333	      0.05242237	      4.94151707	      2.64189398	     -0.66186862	      0.97537025	      0.28845215	     26.68320586	     -3.23193702	     -1.22891210	    -16.62982686	      7.02164273	     -6.68087782	      3.84913374	    -13.85159104	      8.22769193	      3.44703586	    -14.84673628	     12.07883456	     -3.80475918	     -0.17014335	     -0.97829996	     -2.49795736	     -0.97965342
      0.53250000	     -0.01229489	      4.87990565	      2.67225713	     -0.65571636	      0.97500725	      0.28884755	     26.59323530	     -3.11669307	     -1.20230833	    -16.94782267	      6.66865116	     -6.87268179	      4.07418091	    -13.52608333	      8.10983714	      3.24395003	    -16.02108537	     11.88869306	     -3.52450231	      0.49898967	     -0.82951873	     -2.42128632	     -0.96959697
      0.53666667	     -0.08943359	      4.84536829	      2.69622503	     -0.64958565	      0.97466021	      0.28921420	     26.52338427	     -3.03470270	     -1.17309565	    -17.28616433	      6.22641899	     -6.93056486	      4.13599438	    -13.16753140	      8.04030986	      3.14258309	    -17.22814937	     11.64709646	     -3.45344219	      0.73080860	     -0.67215390	     -2.38492748	     -0.93629057
      0.54083333	     -0.14324200	      4.75004250	      2.69164469	     -0.64342006	      0.97436314	      0.28968754	     26.42016488	     -2.86007113	     -1.06018328	    -17.63718926	      5.87022141	     -7.40180382	      5.26119168	    -12.78066362	      7.88442222	      2.87866048	    -18.50791639	     11.27036806	     -3.27237272	      5.34568627	     -0.53475897	     -2.25674842	     -0.86139427
      0.54500000	     -0.19777613	      4.67936800	      2.71441574	     -0.63725813	      0.97410417	      0.29008940	     26.32972620	     -2.74705695	     -1.08234890	    -18.02185579	      5.48364007	     -7.38790396	      5.26525178	    -12.35529227	      7.75307495	      2.67342887	    -19.85814514	     10.91166244	     -3.01976077	      5.41251819	     -0.39668526	     -2.16999653	     -0.84397344
      0.54916667	     -0.26506768	      4.57904504	      2.72021846	     -0.63110881	      0.97385333	      0.29056168	     26.24911845	     -2.58363880	     -1.02823544	    -18.40934697	      5.14880338	     -7.59021334	      5.26845926	    -11.86307029	      7.58255183	      2.41377900	    -21.29245557	     10.51333721	     -2.74239802	      5.54733037	     -0.23998958	     -2.05026781	     -0.78915679
      0.55333333	     -0.31599435	      4.44887031	      2.71847051	     -0.62495487	      0.97366931	      0.29106198	     26.14704595	     -2.38363790	     -0.96133407	    -18.79962466	      4.82424546	     -7.82326870	      5.26726666	    -11.35406688	      7.37513990	      2.15374621	    -22.76619445	     10.00889390	     -2.48921640	      5.73208275	     -0.11263703	     -1.89925191	     -0.71655224
      0.55750000	     -0.29979309	      4.27775474	      2.66445277	     -0.61880252	      0.97359355	      0.29169265	     25.94659590	     -2.09598136	     -0.75558296	    -19.13529425	      4.52795570	     -8.40240109	      5.24783549	    -10.86794311	      7.10194866	      1.74715773	    -24.30544603	      9.47062772	     -2.16990679	      6.76948884	     -0.05495145	     -1.67846886	     -0.61725545
      0.56166667	     -0.37702194	      4.16101610	      2.68119907	     -0.61271702	      0.97341930	      0.29216505	     25.89969567	     -1.92963539	     -0.74368679	    -19.59374238	      4.30990227	     -8.58793268	      5.07037846	    -10.24136404	      6.90043415	      1.53147202	    -25.89640360	      8.73622099	     -2.07300578	     11.03409890	      0.10443945	     -1.54293773	     -0.51550600
      0.56583333	     -0.39281035	      4.02063128	      2.66023181	     -0.60661173	      0.97333952	      0.29268810	     25.77655141	     -1.72541020	     -0.71133829	    -20.02344658	      4.11926575	     -8.59090135	      5.06507668	     -9.65031754	      6.66354884	      1.24768326	    -27.52705110	      7.99405928	     -1.85948923	     11.08916722	      0.20133249	     -1.37934811	     -0.43285113
      0.57000000	     -0.40143214	      3.83588983	      2.63747268	     -0.60056058	      0.97328773	      0.29328053	     25.64528745	     -1.45617707	     -0.62159798	    -20.46234120	      3.98783289	     -8.96336854	      5.03074366	     -9.01160994	      6.35802899	      0.92988814	    -29.23623807	      7.23161358	     -1.56549611	     11.33435832	      0.26953500	     -1.15808032	     -0.30617393
      0.57416667	     -0.39221019	      3.63352397	      2.61283608	     -0.59452413	      0.97328967	      0.29387480	     25.48414322	     -1.17060597	     -0.54088050	    -20.87768031	      3.89037282	     -9.21379857	      4.97356355	     -8.35756546	      6.02776922	      0.62455071	    -30.97973745	      6.36285994	     -1.34966797	     11.71798285	      0.32529818	     -0.92092274	     -0.18452388
      0.57833333	     -0.40315561	      3.43745968	      2.56463120	     -0.58853780	      0.97325351	      0.29446523	     25.37279618	     -0.89298632	     -0.47459393	    -21.33975550	      3.82864265	     -9.30599078	      4.93469336	     -7.64753310	      5.71029307	      0.32186852	    -32.75887058	      5.42444371	     -1.23399519	     11.97126853	      0.39653013	     -0.68040339	     -0.08018795
      0.58250000	     -0.33777570	      3.16875247	      2.52506491	     -0.58255455	      0.97339872	      0.29514067	     25.11089484	     -0.50822031	     -0.30005896	    -21.67587002	      3.82420491	     -9.80454208	      4.73692333	     -6.99010437	      5.28114295	     -0.00081669	    -34.55715481	      4.38408509	     -1.08042330	     13.04182122	      0.37457270	     -0.36713895	      0.06375269
      0.58666667	     -0.32036200	      2.94175638	      2.51359508	     -0.57663191	      0.97345380	      0.29569612	     24.95695649	     -0.22056613	     -0.32129215	    -22.12439471	      3.90557122	     -9.74467836	      3.95478318	     -6.24438819	      4.90621593	     -0.24497025	    -36.38661983	      3.24414861	     -1.02840321	     16.74148526	      0.41045799	     -0.10217563	      0.15007532
      0.59083333	     -0.28505713	      2.69883249	      2.47362698	     -0.57075882	      0.97353252	      0.29629537	     24.77725995	      0.10502177	     -0.27320293	    -22.55303165	      4.03271262	     -9.81623812	      3.94688228	     -5.49373200	      4.51121454	     -0.50290489	    -38.23686414	      2.11090844	     -0.96024841	     16.75522052	      0.41501209	      0.18329785	      0.26466935
      0.59500000	     -0.23490533	      2.42647487	      2.44272167	     -0.56493138	      0.97366292	      0.29691119	     24.55808522	      0.46512087	     -0.21854140	    -22.93325325	      4.18386260	     -9.96734265	      3.92637055	     -4.72924898	      4.07251408	     -0.74415400	    -40.10453533	      0.93447140	     -0.91673896	     16.78506397	      0.39871043	      0.49457832	      0.38528633
      0.59916667	     -0.18376611	      2.14690604	      2.42534833	     -0.55914636	      0.97382042	      0.29750833	     24.32305124	      0.82992970	     -0.17106274	    -23.28428544	      4.36074446	    -10.17146636	      3.87916952	     -3.94534971	      3.62311082	     -0.94376519	    -41.96985632	     -0.29114791	     -0.87945169	     16.83203302	      0.37632220	      0.81698741	      0.51386159
